<?xml version="1.0" encoding="utf-8"?>
<!-- Generator: Adobe Illustrator 16.0.0, SVG Export Plug-In . SVG Version: 6.00 Build 0)  -->
<!DOCTYPE svg PUBLIC "-//W3C//DTD SVG 1.1//EN" "http://www.w3.org/Graphics/SVG/1.1/DTD/svg11.dtd">
<svg version="1.1" id="Layer_1" xmlns="http://www.w3.org/2000/svg" xmlns:xlink="http://www.w3.org/1999/xlink" x="0px" y="0px"
	 width="595.28px" height="841.89px" viewBox="0 0 595.28 841.89" enable-background="new 0 0 595.28 841.89" xml:space="preserve">
<g>
	<g>
		<path fill="#F0526F" d="M230.823,528.889c0,28.017-20.704,29.965-46.245,29.965c-25.542,0-46.247-1.948-46.247-29.965
			c0-28.018,46.247-50.729,46.247-50.729S230.823,500.871,230.823,528.889z"/>
	</g>
	<g>
		<path d="M176.97,508.355l-1.232-0.206c-0.96-0.161-1.935-0.297-2.918-0.434c-1.791-0.249-3.643-0.507-5.512-0.929
			c-0.509-0.114-0.828-0.62-0.713-1.129c0.114-0.507,0.621-0.836,1.128-0.711c1.792,0.403,3.604,0.654,5.357,0.899
			c0.537,0.073,1.071,0.149,1.601,0.227c-0.306-0.97-0.806-1.932-1.325-2.935c-0.862-1.661-1.753-3.379-1.825-5.313
			c-0.019-0.52,0.387-0.958,0.908-0.979c0.532,0.013,0.959,0.387,0.978,0.908c0.057,1.51,0.814,2.97,1.615,4.515
			c0.788,1.519,1.604,3.092,1.8,4.843L176.97,508.355z"/>
	</g>
	<g>
		<path d="M191.924,508.658l-0.019-1.25c-0.026-1.761,0.586-3.422,1.176-5.029c0.601-1.633,1.167-3.176,1.032-4.68
			c-0.046-0.52,0.337-0.979,0.855-1.025c0.513-0.033,0.977,0.334,1.025,0.855c0.173,1.929-0.496,3.744-1.141,5.501
			c-0.389,1.06-0.763,2.077-0.945,3.076c0.516-0.144,1.034-0.284,1.556-0.426c1.708-0.463,3.477-0.941,5.206-1.566
			c0.483-0.178,1.03,0.073,1.208,0.565c0.179,0.49-0.076,1.03-0.566,1.207c-1.801,0.653-3.607,1.144-5.353,1.617
			c-0.957,0.258-1.904,0.516-2.837,0.794L191.924,508.658z"/>
	</g>
	<g>
		<circle cx="173.839" cy="514.758" r="2.135"/>
	</g>
	<g>
		<circle cx="194.985" cy="514.023" r="2.135"/>
	</g>
	<g>
		<ellipse fill="#B7B7B7" cx="186.547" cy="538.326" rx="10.573" ry="8.258"/>
	</g>
</g>
<g>
	<g>
		<path fill="#F0526F" d="M433.511,333.446c0,81.002-59.862,86.639-133.71,86.639c-73.847,0-133.709-5.637-133.709-86.639
			c0-81.005,133.709-146.672,133.709-146.672S433.511,252.441,433.511,333.446z"/>
	</g>
	<g>
		<path d="M275.77,271.928l-1.231-0.206c-2.791-0.466-5.617-0.86-8.474-1.257c-5.145-0.717-10.465-1.458-15.803-2.661
			c-0.507-0.114-0.828-0.619-0.711-1.128c0.112-0.508,0.612-0.826,1.128-0.713c5.259,1.185,10.541,1.921,15.648,2.632
			c2.437,0.34,4.854,0.676,7.244,1.057c-0.723-3.944-2.706-7.768-4.63-11.478c-2.4-4.628-4.883-9.413-5.079-14.603
			c-0.018-0.521,0.387-0.959,0.909-0.979c0.512-0.027,0.958,0.387,0.979,0.907c0.179,4.768,2.456,9.158,4.866,13.806
			c2.205,4.251,4.485,8.648,5.016,13.381L275.77,271.928z"/>
	</g>
	<g>
		<path d="M322.789,272.565l-0.019-1.25c-0.068-4.759,1.639-9.406,3.29-13.899c1.809-4.916,3.516-9.56,3.09-14.312
			c-0.046-0.519,0.338-0.978,0.855-1.024c0.505-0.047,0.979,0.335,1.024,0.856c0.463,5.173-1.396,10.235-3.196,15.13
			c-1.441,3.921-2.927,7.962-3.15,11.963c2.321-0.678,4.672-1.314,7.044-1.958c4.98-1.349,10.129-2.746,15.202-4.582
			c0.48-0.174,1.03,0.076,1.207,0.565c0.179,0.491-0.075,1.032-0.565,1.209c-5.146,1.864-10.332,3.269-15.35,4.629
			c-2.78,0.753-5.532,1.499-8.236,2.311L322.789,272.565z"/>
	</g>
	<g>
		<path d="M274.929,292.589c0,3.412-2.767,6.179-6.173,6.179c-3.41,0-6.175-2.767-6.175-6.179c0-3.406,2.765-6.171,6.175-6.171
			C272.162,286.417,274.929,289.183,274.929,292.589z"/>
	</g>
	<g>
		<path d="M336.063,290.467c0,3.412-2.767,6.179-6.171,6.179c-3.41,0-6.177-2.767-6.177-6.179c0-3.405,2.767-6.17,6.177-6.17
			C333.296,284.297,336.063,287.063,336.063,290.467z"/>
	</g>
	<g>
		<path fill="#B7B7B7" d="M336.063,360.734c0,13.188-13.685,23.875-30.569,23.875c-16.879,0-30.564-10.688-30.564-23.875
			c0-13.183,13.685-23.877,30.564-23.877C322.378,336.856,336.063,347.551,336.063,360.734z"/>
	</g>
</g>
<g>
	<g>
		<path fill="#BABABA" d="M344.078,623.267c0,28.017-20.705,29.966-46.246,29.966c-25.543,0-46.247-1.949-46.247-29.966
			s46.247-50.729,46.247-50.729S344.078,595.25,344.078,623.267z"/>
	</g>
	<g>
		<path d="M282.483,600.885c-0.252,0-0.505-0.101-0.691-0.3c-0.355-0.384-0.333-0.981,0.048-1.335c1.11-1.03,1.72-2.557,2.367-4.172
			c0.636-1.589,1.294-3.232,2.492-4.523l0.848-0.916l0.649,1.067c0.503,0.826,1.032,1.646,1.567,2.476
			c0.984,1.524,2.003,3.103,2.907,4.799c0.245,0.46,0.07,1.032-0.389,1.277c-0.459,0.241-1.034,0.071-1.277-0.39
			c-0.867-1.627-1.862-3.17-2.826-4.663c-0.289-0.45-0.579-0.896-0.862-1.344c-0.533,0.864-0.937,1.871-1.355,2.918
			c-0.697,1.738-1.416,3.535-2.833,4.854C282.944,600.802,282.713,600.885,282.483,600.885z"/>
	</g>
	<g>
		<path d="M303.126,600.111c-0.101,0-0.202-0.017-0.304-0.05c-0.494-0.17-0.758-0.706-0.59-1.198c0.621-1.819,1.371-3.538,2.096-5.2
			c0.395-0.905,0.785-1.801,1.148-2.698l0.47-1.158l0.986,0.767c1.388,1.082,2.303,2.598,3.188,4.064
			c0.897,1.49,1.745,2.898,3.005,3.735c0.435,0.287,0.553,0.873,0.263,1.307c-0.287,0.437-0.875,0.549-1.307,0.264
			c-1.612-1.071-2.612-2.729-3.578-4.332c-0.582-0.966-1.143-1.895-1.808-2.662c-0.209,0.487-0.423,0.978-0.637,1.468
			c-0.711,1.628-1.444,3.311-2.038,5.055C303.886,599.864,303.519,600.111,303.126,600.111z"/>
	</g>
	<g>
		<path d="M289.229,609.136c0,1.18-0.958,2.137-2.135,2.137c-1.18,0-2.138-0.957-2.138-2.137c0-1.178,0.958-2.135,2.138-2.135
			C288.271,607.001,289.229,607.958,289.229,609.136z"/>
	</g>
	<g>
		<circle cx="308.239" cy="608.402" r="2.135"/>
	</g>
	<g>
		<ellipse fill="#F16873" cx="299.802" cy="632.705" rx="17.492" ry="13.662"/>
	</g>
</g>
<g>
	<g>
		<path fill="#34449C" d="M457.332,623.267c0,28.017-20.704,29.966-46.245,29.966c-25.543,0-46.248-1.949-46.248-29.966
			s46.248-50.729,46.248-50.729S457.332,595.25,457.332,623.267z"/>
	</g>
	<g>
		<path d="M398.517,604.492l-0.711-1.024c-0.552-0.791-1.128-1.576-1.709-2.367c-1.078-1.465-2.191-2.98-3.2-4.623
			c-0.271-0.446-0.133-1.026,0.312-1.3c0.446-0.269,1.026-0.132,1.3,0.312c0.966,1.578,2.055,3.061,3.109,4.493
			c0.315,0.429,0.629,0.854,0.937,1.282c0.481-0.896,0.822-1.924,1.178-2.995c0.59-1.777,1.202-3.615,2.538-5.016
			c0.359-0.376,0.957-0.391,1.335-0.029c0.376,0.359,0.391,0.956,0.029,1.334c-1.043,1.094-1.562,2.654-2.11,4.307
			c-0.54,1.624-1.099,3.305-2.214,4.663L398.517,604.492z"/>
	</g>
	<g>
		<path d="M421.549,604.533l-0.773-0.979c-1.092-1.381-1.617-3.071-2.126-4.705c-0.518-1.66-1.006-3.23-2.031-4.343
			c-0.352-0.383-0.328-0.98,0.056-1.334c0.387-0.351,0.982-0.324,1.334,0.055c1.311,1.425,1.888,3.274,2.444,5.063
			c0.334,1.076,0.656,2.11,1.121,3.014c0.317-0.422,0.638-0.843,0.96-1.267c1.081-1.412,2.196-2.874,3.193-4.43
			c0.283-0.44,0.87-0.565,1.303-0.285c0.438,0.28,0.568,0.864,0.286,1.303c-1.038,1.622-2.179,3.115-3.281,4.559
			c-0.598,0.781-1.188,1.556-1.753,2.338L421.549,604.533z"/>
	</g>
	<g>
		<path d="M402.483,609.136c0,1.18-0.958,2.137-2.134,2.137c-1.18,0-2.139-0.957-2.139-2.137c0-1.178,0.959-2.135,2.139-2.135
			C401.525,607.001,402.483,607.958,402.483,609.136z"/>
	</g>
	<g>
		<circle cx="421.493" cy="608.402" r="2.136"/>
	</g>
	<g>
		<ellipse fill="#F16873" cx="413.056" cy="632.705" rx="17.493" ry="13.662"/>
	</g>
</g>
<g>
	<g>
		<path fill="#D8D8D8" d="M230.823,623.267c0,28.017-20.704,29.966-46.245,29.966c-25.542,0-46.247-1.949-46.247-29.966
			s46.247-50.729,46.247-50.729S230.823,595.25,230.823,623.267z"/>
	</g>
	<g>
		<path d="M168.052,608.855c-0.253,0-0.505-0.102-0.691-0.3c-0.355-0.384-0.333-0.981,0.049-1.335
			c1.108-1.03,1.719-2.555,2.366-4.172c0.637-1.589,1.295-3.232,2.493-4.523l0.85-0.916l0.648,1.067
			c0.506,0.833,1.039,1.659,1.578,2.494c0.979,1.519,1.994,3.089,2.895,4.779c0.245,0.461,0.071,1.032-0.389,1.278
			c-0.462,0.246-1.03,0.071-1.277-0.39c-0.864-1.62-1.856-3.157-2.814-4.645c-0.294-0.456-0.586-0.909-0.874-1.362
			c-0.535,0.864-0.938,1.872-1.357,2.92c-0.696,1.738-1.416,3.533-2.833,4.852C168.512,608.772,168.282,608.855,168.052,608.855z"/>
	</g>
	<g>
		<path d="M189.872,607.211c-0.102,0-0.203-0.016-0.304-0.049c-0.494-0.17-0.758-0.706-0.59-1.198
			c0.621-1.819,1.372-3.538,2.096-5.2c0.395-0.905,0.786-1.801,1.148-2.699l0.47-1.157l0.986,0.767
			c1.388,1.082,2.302,2.598,3.187,4.064c0.897,1.49,1.746,2.898,3.004,3.735c0.435,0.287,0.553,0.873,0.264,1.307
			c-0.288,0.438-0.875,0.549-1.307,0.264c-1.613-1.071-2.612-2.729-3.578-4.332c-0.583-0.966-1.143-1.895-1.808-2.662
			c-0.208,0.487-0.422,0.978-0.636,1.468c-0.711,1.628-1.445,3.311-2.039,5.055C190.631,606.965,190.265,607.211,189.872,607.211z"
			/>
	</g>
	<g>
		<ellipse fill="#F16873" cx="186.547" cy="632.705" rx="10.573" ry="8.258"/>
	</g>
</g>
<g>
	<g>
		<path fill="#A9A8A8" d="M457.332,528.889c0,28.017-20.704,29.965-46.245,29.965c-25.543,0-46.248-1.948-46.248-29.965
			c0-28.018,46.248-50.729,46.248-50.729S457.332,500.871,457.332,528.889z"/>
	</g>
	<g>
		<path d="M392.394,513.332c-0.347,0-0.683-0.193-0.847-0.525c-0.23-0.468-0.038-1.033,0.428-1.264
			c1.645-0.813,3.211-1.757,4.725-2.668c0.467-0.282,0.931-0.561,1.394-0.835c-0.848-0.561-1.843-0.995-2.877-1.447
			c-1.715-0.75-3.488-1.524-4.76-2.98c-0.345-0.393-0.304-0.987,0.089-1.331c0.391-0.341,0.985-0.306,1.33,0.089
			c0.996,1.138,2.502,1.796,4.097,2.492c1.57,0.686,3.192,1.396,4.447,2.634l0.889,0.878l-1.088,0.615
			c-0.85,0.479-1.693,0.988-2.547,1.503c-1.547,0.931-3.146,1.895-4.861,2.742C392.677,513.301,392.535,513.332,392.394,513.332z"/>
	</g>
	<g>
		<path d="M429.31,512.029c-0.123,0-0.249-0.024-0.368-0.076c-1.765-0.748-3.422-1.618-5.021-2.462
			c-0.878-0.461-1.746-0.918-2.617-1.348l-1.121-0.552l0.837-0.927c1.18-1.307,2.76-2.106,4.285-2.883
			c1.553-0.787,3.018-1.53,3.945-2.725c0.317-0.413,0.914-0.488,1.323-0.166c0.411,0.319,0.486,0.913,0.166,1.323
			c-1.186,1.528-2.91,2.404-4.581,3.252c-1.006,0.509-1.972,1.001-2.787,1.607c0.476,0.245,0.95,0.496,1.429,0.747
			c1.567,0.825,3.188,1.677,4.88,2.396c0.479,0.203,0.704,0.758,0.499,1.237C430.026,511.813,429.677,512.029,429.31,512.029z"/>
	</g>
	<g>
		<path d="M402.483,514.758c0,1.18-0.958,2.136-2.134,2.136c-1.18,0-2.139-0.956-2.139-2.136c0-1.179,0.959-2.135,2.139-2.135
			C401.525,512.623,402.483,513.579,402.483,514.758z"/>
	</g>
	<g>
		<circle cx="421.493" cy="514.023" r="2.136"/>
	</g>
	<g>
		<path fill="#F16873" d="M430.528,538.326c0,4.561-7.235,8.258-16.161,8.258c-8.919,0-16.156-3.697-16.156-8.258
			s7.237-8.258,16.156-8.258C423.293,530.068,430.528,533.766,430.528,538.326z"/>
	</g>
</g>
<g>
	<g>
		<path fill="#BABABA" d="M344.078,528.889c0,28.017-20.705,29.965-46.246,29.965c-25.543,0-46.247-1.948-46.247-29.965
			c0-28.018,46.247-50.729,46.247-50.729S344.078,500.871,344.078,528.889z"/>
	</g>
	<g>
		<path d="M286.348,509.263l-0.837-0.93c-0.649-0.721-1.323-1.432-2.005-2.149c-1.248-1.313-2.536-2.671-3.738-4.166
			c-0.326-0.407-0.262-1,0.144-1.327c0.41-0.324,1.003-0.262,1.328,0.145c1.154,1.436,2.415,2.765,3.635,4.05
			c0.373,0.391,0.741,0.779,1.104,1.168c0.365-0.949,0.575-2.015,0.793-3.122c0.361-1.836,0.733-3.734,1.88-5.29
			c0.31-0.423,0.903-0.513,1.318-0.201c0.42,0.308,0.51,0.899,0.201,1.317c-0.894,1.217-1.211,2.83-1.546,4.537
			c-0.332,1.681-0.673,3.419-1.609,4.91L286.348,509.263z"/>
	</g>
	<g>
		<path d="M309.074,507.817l-1.068-0.651c-1.503-0.916-2.585-2.318-3.63-3.675c-1.062-1.379-2.064-2.681-3.408-3.368
			c-0.465-0.237-0.648-0.808-0.411-1.27c0.239-0.465,0.813-0.646,1.271-0.411c1.722,0.883,2.903,2.414,4.044,3.896
			c0.689,0.894,1.352,1.753,2.102,2.44c0.152-0.515,0.31-1.03,0.47-1.549c0.519-1.691,1.053-3.439,1.443-5.232
			c0.11-0.507,0.608-0.83,1.123-0.721c0.509,0.11,0.831,0.611,0.721,1.122c-0.406,1.869-0.953,3.655-1.482,5.383
			c-0.291,0.951-0.581,1.892-0.841,2.831L309.074,507.817z"/>
	</g>
	<g>
		<path d="M289.229,514.758c0,1.18-0.958,2.136-2.135,2.136c-1.18,0-2.138-0.956-2.138-2.136c0-1.179,0.958-2.135,2.138-2.135
			C288.271,512.623,289.229,513.579,289.229,514.758z"/>
	</g>
	<g>
		<circle cx="308.239" cy="514.023" r="2.135"/>
	</g>
	<g>
		<ellipse fill="#F16873" cx="298.628" cy="538.326" rx="9.218" ry="4.71"/>
	</g>
</g>
</svg>
